<svg xmlns="http://www.w3.org/2000/svg" width="780" height="850" viewBox="0 0 780 850">
  <defs>
    <linearGradient id="bracket" x1="0" y1="0" x2="0" y2="1">
      <stop offset="0" stop-color="#4AA9FF"/>
      <stop offset="1" stop-color="#156BE8"/>
    </linearGradient>
    <linearGradient id="scan" x1="0" y1="0" x2="1" y2="0">
      <stop offset="0" stop-color="#1B6BE8" stop-opacity="0"/>
      <stop offset="0.12" stop-color="#39A0FF"/>
      <stop offset="0.5" stop-color="#7CC8FF"/>
      <stop offset="0.88" stop-color="#39A0FF"/>
      <stop offset="1" stop-color="#1B6BE8" stop-opacity="0"/>
    </linearGradient>
    <filter id="glowBig" x="-50%" y="-500%" width="200%" height="1100%">
      <feGaussianBlur stdDeviation="9"/>
    </filter>
    <filter id="glowSmall" x="-50%" y="-500%" width="200%" height="1100%">
      <feGaussianBlur stdDeviation="2.5"/>
    </filter>
  </defs>

  <!-- corner brackets -->
  <g stroke="url(#bracket)" stroke-width="22" fill="none" stroke-linecap="round" stroke-linejoin="round">
    <path d="M 155 75 H 110 Q 90 75 90 95 V 140"/>
    <path d="M 615 75 H 660 Q 680 75 680 95 V 140"/>
    <path d="M 90 480 V 525 Q 90 545 110 545 H 155"/>
    <path d="M 680 480 V 525 Q 680 545 660 545 H 615"/>
  </g>

  <!-- i glyph -->
  <rect x="150" y="120" width="58" height="72" rx="18" fill="#0E0E10"/>
  <rect x="150" y="215" width="58" height="255" rx="24" fill="#0E0E10"/>

  <!-- barcode -->
  <g fill="#0E0E10">
    <rect x="248" y="150" width="9"  height="320"/>
    <rect x="266" y="150" width="5"  height="320"/>
    <rect x="280" y="150" width="12" height="320"/>
    <rect x="301" y="150" width="5"  height="320"/>
    <rect x="315" y="150" width="8"  height="320"/>
    <rect x="332" y="150" width="5"  height="320"/>
    <rect x="346" y="150" width="14" height="320"/>
    <rect x="369" y="150" width="6"  height="320"/>
    <rect x="384" y="150" width="9"  height="320"/>
    <rect x="411" y="150" width="12" height="320"/>
    <rect x="432" y="150" width="5"  height="320"/>
    <rect x="446" y="150" width="8"  height="320"/>
    <rect x="463" y="150" width="5"  height="320"/>
    <rect x="477" y="150" width="14" height="320"/>
    <rect x="500" y="150" width="6"  height="320"/>
    <rect x="515" y="150" width="10" height="320"/>
    <rect x="534" y="150" width="5"  height="320"/>
    <rect x="548" y="150" width="8"  height="320"/>
    <rect x="565" y="150" width="5"  height="320"/>
    <rect x="579" y="150" width="12" height="320"/>
  </g>

  <!-- scan line -->
  <g>
    <rect x="60" y="296" width="650" height="16" fill="url(#scan)" filter="url(#glowBig)" opacity="0.85"/>
    <rect x="70" y="300" width="630" height="8"  fill="url(#scan)" filter="url(#glowSmall)"/>
    <rect x="80" y="302.5" width="610" height="3" fill="#EAF6FF"/>
  </g>

  <!-- wordmark: IDEALONE (A drawn as open lambda + blue triangle) -->
  <g font-family="Arial, Helvetica, sans-serif" font-weight="bold" fill="#0E0E10">
    <text x="90" y="680" font-size="92" letter-spacing="16">IDE</text>
    <text x="392" y="680" font-size="92" letter-spacing="16">LONE</text>
  </g>
  <!-- lambda A: open legs, blue triangle in the gap -->
  <path d="M 310 680 L 343 588 Q 345 583 350 583 Q 355 583 357 588 L 390 680 L 364 680 L 350 640 L 336 680 Z" fill="#0E0E10"/>
  <path d="M 350 649 L 361 680 L 339 680 Z" fill="#1B6BE8"/>

  <!-- HUNTER sub-brand -->
  <text x="92" y="772" font-family="Arial, Helvetica, sans-serif" font-weight="bold"
        font-size="62" textLength="596" lengthAdjust="spacing" fill="#1B6BE8">HUNTER</text>
</svg>
